PathFileType	4	(X/Y/Z)	../Python\walking\Walking06\task.trc
DataRate	CameraRate	NumFrames	NumMarkers	Units	OrigDataRate	OrigDataStartFrame	OrigNumFrames
200.000000	200.000000	4	30	mm	200.000000	482	551
Frame#	Time	CLAV			STRN			RASI			RPSI			LPSI			LASI			RTH1			RTH2			RTH3			RTB1			RTB2			RTB3			RD5M			RTOE			LTH1			LTH3			LTB1			LTB2			LTB3			LTOE			LD5M			PE03			T10			PE01			LHEE			PE02			LTH2			C7			RHEE			RBAK			
		X1	Y1	Z1	X2	Y2	Z2	X3	Y3	Z3	X4	Y4	Z4	X5	Y5	Z5	X6	Y6	Z6	X7	Y7	Z7	X8	Y8	Z8	X9	Y9	Z9	X10	Y10	Z10	X11	Y11	Z11	X12	Y12	Z12	X13	Y13	Z13	X14	Y14	Z14	X15	Y15	Z15	X16	Y16	Z16	X17	Y17	Z17	X18	Y18	Z18	X19	Y19	Z19	X20	Y20	Z20	X21	Y21	Z21	X22	Y22	Z22	X23	Y23	Z23	X24	Y24	Z24	X25	Y25	Z25	X26	Y26	Z26	X27	Y27	Z27	X28	Y28	Z28	X29	Y29	Z29	X30	Y30	Z30	

483	2.41	2496.679443359376	1429.584106445313	130.2215881347657	2554.754638671876	1236.903076171875	142.0102233886719	2526.653076171876	1010.324462890625	273.0589904785157	2370.336425781251	1057.349365234375	178.5066528320313	2370.697265625001	1066.479614257813	78.77568054199222	2549.492187500001	1029.16015625	-0.8640004992485051	2521.984130859376	747.3762207031252	309.6890563964845	2478.894042968751	711.7993164062502	281.3580017089845	2511.512695312501	673.6804809570315	280.3241271972657	2501.249511718751	392.7979431152346	257.9041748046876	2440.093017578126	392.3746643066409	250.1264190673829	2440.260986328126	341.9358520507814	249.7463378906251	2268.520996093751	97.63086700439459	262.4317016601564	2318.874511718751	68.54325866699222	236.9818725585939	2486.721435546876	715.2859497070315	-37.21520233154298	2513.162109375001	642.8816528320315	-17.38771438598634	2466.887695312501	350.3519897460939	7.677361965179447	2434.631591796876	313.8364562988282	16.37539100646973	2481.564453125001	274.060028076172	24.77344512939455	2594.953613281251	23.66444206237794	89.15287780761722	2546.921630859376	10.38503074645996	37.41841888427736	2364.143066406251	1051.1943359375	103.6806259155274	2326.797363281251	1252.875366210938	119.0780944824219	2377.492431640626	1108.640991210938	132.9131774902344	2377.903564453126	30.6669044494629	95.66310882568362	2366.013427734376	1046.936889648438	154.3295288085938	2460.924804687501	674.3425903320315	-25.75730895996095	2372.770019531251	1509.211547851563	111.7786865234376	2191.468505859376	215.4419860839845	157.6920318603516	2352.141113281251	1428.078735351563	286.7225952148439	
484	2.415	2503.140625000001	1430.117797851563	130.2309570312501	2560.979248046876	1237.444946289063	141.7505340576172	2532.685546875001	1011.557250976563	272.5408630371095	2376.389404296876	1058.302124023438	178.4282684326172	2376.733398437501	1067.053955078125	78.68341064453128	2555.336669921876	1029.158081054688	-1.318607449531556	2530.350341796876	749.3335571289065	310.0341186523439	2487.780761718751	713.109313964844	281.6444091796876	2520.935302734376	675.4315185546877	280.7055053710939	2515.136230468751	393.9660949707034	258.0130310058595	2453.999755859376	392.2505493164065	250.1075592041017	2455.219238281251	341.818817138672	250.0046844482423	2290.275390625001	93.97650146484378	262.9969177246095	2341.623291015626	66.6341247558594	237.3429412841798	2490.282714843751	715.373229980469	-37.13695526123048	2516.021484375001	642.715515136719	-17.30314445495606	2467.957275390626	350.460906982422	7.637158870697025	2435.435546875001	314.077606201172	16.4843978881836	2482.252685546876	274.1360778808595	24.62237358093263	2595.000976562501	23.63518714904786	89.1896896362305	2546.937744140626	10.40313720703125	37.45214843750001	2370.178710937501	1051.831787109375	103.6291122436524	2333.098144531251	1253.640869140625	118.4128799438477	2383.548583984376	1109.390380859375	132.6042785644532	2377.937744140626	30.90560340881349	95.69593048095706	2372.039794921876	1047.790161132813	154.2836151123047	2464.104736328126	674.688659667969	-25.72006034851076	2379.427978515626	1509.909301757813	111.7569198608399	2208.790527343751	208.8665008544923	158.2783203125001	2358.372314453126	1428.5849609375	286.3597717285157	
485	2.42	2509.610107421876	1430.619506835938	130.2354125976563	2567.208740234376	1237.949340820313	141.4904174804688	2538.718261718751	1012.746337890625	272.0121459960939	2382.430664062501	1059.1953125	178.3944702148438	2382.746093750001	1067.564453125	78.63871002197268	2561.158935546876	1029.120239257813	-1.771202206611634	2538.795898437501	751.3032226562502	310.3720092773439	2496.698974609376	714.4278564453127	282.0318603515626	2530.380371093751	677.1960449218752	281.1522521972657	2529.009521484376	394.9638366699221	258.103973388672	2467.920166015626	391.9038085937502	250.1880950927736	2470.234130859376	341.5096130371095	250.2327575683595	2312.221191406251	90.25031280517581	263.5692443847657	2364.502929687501	64.69116973876956	237.7039642333986	2493.806396484376	715.4488525390627	-37.06214904785158	2518.836914062501	642.551940917969	-17.23985481262208	2468.958740234376	350.5893859863282	7.598464965820316	2436.150634765626	314.3545532226564	16.63466835021973	2482.867675781251	274.2474365234376	24.41442871093751	2595.049804687501	23.6055030822754	89.22422790527347	2546.955322265626	10.41902542114258	37.48485946655275	2376.195800781251	1052.407592773438	103.6238327026368	2339.404296875001	1254.378051757813	117.7606964111329	2389.589843750001	1110.078125	132.3372650146485	2377.980712890626	31.15419769287111	95.72637176513675	2378.052246093751	1048.584594726563	154.2845001220704	2467.247558593751	675.0380859375002	-25.64756393432619	2386.091064453126	1510.573486328125	111.7346267700196	2226.415283203126	202.0547027587892	158.8802185058594	2364.617431640626	1429.072998046875	285.9954223632814	
486	2.425	2516.090087890626	1431.08544921875	130.2352142333985	2573.443359375001	1238.411254882813	141.2307281494141	2544.749511718751	1013.887573242188	271.4776611328126	2388.459716796876	1060.024047851563	178.4011383056641	2388.736083984376	1068.00927734375	78.63720703125003	2566.960937500001	1029.043701171875	-2.216910362243653	2547.315185546876	753.2801513671877	310.7020568847657	2505.643310546876	715.749938964844	282.5185546875001	2539.841308593751	678.968688964844	281.6598205566407	2542.872070312501	395.791442871094	258.1761779785157	2481.859619140626	391.338317871094	250.3659667968751	2485.308349609376	341.0143432617189	250.4291839599611	2334.350585937501	86.47711944580081	264.1535644531251	2387.502929687501	62.7317810058594	238.0781097412111	2497.303710937501	715.515075683594	-36.990291595459	2521.624511718751	642.3930664062502	-17.19904708862305	2469.908447265626	350.7345581054689	7.561900615692142	2436.805664062501	314.661834716797	16.81002807617188	2483.430419921876	274.3853759765626	24.17109489440919	2595.100097656251	23.57630348205567	89.25630187988284	2546.974609375001	10.43320274353028	37.51688766479494	2382.194335937501	1052.919311523438	103.660499572754	2345.715576171876	1255.084228515625	117.1237258911133	2395.617187500001	1110.700927734375	132.109848022461	2378.033691406251	31.41243743896486	95.75639343261722	2384.050781250001	1049.316040039063	154.3281555175782	2470.366699218751	675.3911132812502	-25.53823852539064	2392.761230468751	1511.201538085938	111.7119827270508	2244.350585937501	195.0334777832032	159.4878234863282	2370.879150390626	1429.540649414063	285.6312255859376	
